<svg xmlns="http://www.w3.org/2000/svg" viewBox="0 0 51.8 52.22"><defs><style>.cls-1{fill:#103751;}</style></defs><g id="Layer_2" data-name="Layer 2"><g id="icon"><path class="cls-1" d="M41.42,15.52c0,.27,0,.53,0,.8-.46,11.87-11.13,22.84-14.5,26a1.46,1.46,0,0,1-2,0c-3.36-3.17-14-14.14-14.49-26,0-.27,0-.53,0-.8a15.52,15.52,0,0,1,31,0Zm-8.67,0a6.85,6.85,0,1,0-6.85,6.85A6.85,6.85,0,0,0,32.75,15.52Z"/><path class="cls-1" d="M50.3,52.22H1.5a1.5,1.5,0,0,1-1.25-.67,1.47,1.47,0,0,1-.13-1.41L8.06,31.08a1.48,1.48,0,0,1,1.38-.92h3.11a1.5,1.5,0,0,1,0,3H10.44L3.75,49.22h44.3L41.36,33.16H39.93a1.5,1.5,0,0,1,0-3h2.43a1.5,1.5,0,0,1,1.39.92l7.94,19.06a1.51,1.51,0,0,1-1.39,2.08Z"/></g></g></svg>