<svg xmlns="http://www.w3.org/2000/svg" viewBox="0 0 40.65 41.64"><defs><style>.cls-1{fill:#103751;}</style></defs><g id="Layer_2" data-name="Layer 2"><g id="icon"><path class="cls-1" d="M16.48,33H16A16.48,16.48,0,0,1,5.13,4.52a16.48,16.48,0,0,1,23.29.62,16.47,16.47,0,0,1-.61,23.29A16.33,16.33,0,0,1,16.48,33ZM16.46,3a13.47,13.47,0,1,0,9.79,4.2h0A13.44,13.44,0,0,0,16.82,3Z"/><path class="cls-1" d="M39.15,41.64a1.51,1.51,0,0,1-1.09-.47L30.2,32.88a1.5,1.5,0,1,1,2.17-2.06l7.87,8.28a1.5,1.5,0,0,1-1.09,2.54Z"/></g></g></svg>